<svg viewBox="0 0 512 512" xml:space="preserve" xmlns="http://www.w3.org/2000/svg" enable-background="new 0 0 512 512"><path d="M360.8 6h-236C87.6 6 57.4 36.2 57.4 73.4v25.5h29.4c3.7-3.6 8.8-5.9 14.5-5.9 11.4 0 20.7 9.3 20.7 20.7 0 11.4-9.3 20.7-20.7 20.7-5.6 0-10.7-2.3-14.5-5.9H57.4v65.3h29.4c3.7-3.6 8.8-5.9 14.5-5.9 11.4 0 20.7 9.3 20.7 20.7 0 11.4-9.3 20.7-20.7 20.7-5.6 0-10.7-2.3-14.5-5.9H57.4v65.3h29.4c3.7-3.6 8.8-5.9 14.5-5.9 11.4 0 20.7 9.3 20.7 20.7 0 11.4-9.3 20.7-20.7 20.7-5.6 0-10.7-2.3-14.5-5.9H57.4v65.3h29.4c3.7-3.6 8.8-5.9 14.5-5.9 11.4 0 20.7 9.3 20.7 20.7 0 11.4-9.3 20.7-20.7 20.7-5.6 0-10.7-2.3-14.5-5.9H57.4v25.5c0 37.2 30.2 67.4 67.4 67.4h236c37.2 0 67.4-30.2 67.4-67.4V73.4C428.2 36.2 398 6 360.8 6zm-68 363.7c-15.3-1.4-30.1-6.8-43.7-14.2-28.8-15.7-87.3-132-82.7-164.5 2.2-15.3 6.6-30.4 14.7-43.5 12.6-20.5 44.2-45 65.6-20.7 7.5 8.6 10.6 20.2 12.2 31.5 1.4 9.7 1.8 19.9-2.2 28.8-4 8.9-13.7 15.8-23.3 13.8-5.5-1.2-11.4-5-16.3-2.3-3.5 2-4.6 6.5-5.1 10.5-2.6 19.8 32.3 89.3 49.8 99 3.5 2 7.8 3.8 11.5 2.2 5.2-2.3 5.5-9.3 7.9-14.4 4.1-8.9 15.5-12.5 25-10.4 9.5 2.1 17.5 8.5 24.4 15.4 8.1 8 15.6 17.4 18 28.5 6.7 31.8-31.8 42.5-55.8 40.3zM444.4 84.1h-11.2v54.7h11.2c3.7 0 7.2 1 10.2 2.8V94.3c0-5.7-4.6-10.2-10.2-10.2zM444.4 148.8h-11.2v54.7h11.2c3.7 0 7.2 1 10.2 2.8V159c0-5.7-4.6-10.2-10.2-10.2zM444.4 213.4h-11.2v54.7h11.2c3.7 0 7.2 1 10.2 2.8v-47.3c0-5.6-4.6-10.2-10.2-10.2zM444.4 278.1h-11.2v54.7h11.2c3.7 0 7.2 1 10.2 2.8v-47.3c0-5.7-4.6-10.2-10.2-10.2z" fill="#b7202f" class="fill-000000"></path></svg>