<?xml version="1.0" ?><!DOCTYPE svg  PUBLIC '-//W3C//DTD SVG 1.1//EN'  'http://www.w3.org/Graphics/SVG/1.1/DTD/svg11.dtd'><svg height="8.4666mm" style="shape-rendering:geometricPrecision; text-rendering:geometricPrecision; image-rendering:optimizeQuality; fill-rule:evenodd; clip-rule:evenodd" version="1.1" viewBox="0 0 846.66 846.66" width="8.4666mm" xml:space="preserve" xmlns="http://www.w3.org/2000/svg" xmlns:xlink="http://www.w3.org/1999/xlink"><defs><style type="text/css">
   <![CDATA[
    .fil0 {fill:black;fill-rule:nonzero}
   ]]>
  </style></defs><g id="Layer_x0020_1"><path class="fil0" d="M31.17 74.04l784.32 0c11.39,0 20.63,9.24 20.63,20.63l0 657.32c0,11.39 -9.24,20.63 -20.63,20.63l-784.32 0c-11.39,0 -20.63,-9.24 -20.63,-20.63l0 -657.32c0,-11.39 9.24,-20.63 20.63,-20.63zm277.48 445.64c-27.13,0 -27.13,-41.26 0,-41.26l76.34 0c27.14,0 27.14,41.26 0,41.26l-76.34 0zm0 82.53c-27.13,0 -27.13,-41.27 0,-41.27l76.34 0c27.14,0 27.14,41.27 0,41.27l-76.34 0zm0 82.52c-27.13,0 -27.13,-41.26 0,-41.26l76.34 0c27.14,0 27.14,41.26 0,41.26l-76.34 0zm-160.92 -165.05c-27.14,0 -27.14,-41.26 0,-41.26l76.33 0c27.14,0 27.14,41.26 0,41.26l-76.33 0zm0 82.53c-27.14,0 -27.14,-41.27 0,-41.27l76.33 0c27.14,0 27.14,41.27 0,41.27l-76.33 0zm0 82.52c-27.14,0 -27.14,-41.26 0,-41.26l76.33 0c27.14,0 27.14,41.26 0,41.26l-76.33 0zm258.71 -516.76c8.9,-1.35 17.96,3.3 21.84,11.9l18.51 40.93c11.13,24.7 -26.43,41.62 -37.56,16.92l-2.7 -5.98 -80.14 127.89c-6.5,12.24 -23.23,14.77 -33.01,4.61l-59.52 -62.12 -39.72 100.92c-9.85,25.23 -48.21,10.24 -38.36,-14.99l51.51 -130.88c5.67,-14.5 24.63,-17.54 34.66,-6.09l62.88 65.63 63.39 -101.16 -5.53 0.86c-26.82,4.02 -32.94,-36.76 -6.12,-40.78l49.87 -7.66zm171.57 196.02c0,-27.14 41.27,-27.14 41.27,0l0 9.09 39.33 0c27.13,0 27.13,41.26 0,41.26l-39.33 0 0 48.94 9.6 0c36.2,0 65.73,29.53 65.73,65.73 0,36.19 -29.53,65.72 -65.73,65.72l-9.6 0 0 9.1c0,27.13 -41.27,27.13 -41.27,0l0 -9.1 -39.32 0c-27.14,0 -27.14,-41.26 0,-41.26l39.32 0 0 -48.93 -9.6 0c-36.19,0 -65.73,-29.54 -65.73,-65.73 0,-36.2 29.53,-65.73 65.73,-65.73l9.6 0 0 -9.09zm41.27 140.55l0 48.93 9.6 0c13.42,0 24.47,-11.05 24.47,-24.46 0,-13.41 -11.06,-24.47 -24.47,-24.47l-9.6 0zm-41.27 -41.26l0 -48.94 -9.6 0c-13.41,0 -24.47,11.06 -24.47,24.47 0,13.41 11.06,24.47 24.47,24.47l9.6 0zm216.85 -347.98l-743.06 0 0 616.06 743.06 0 0 -616.06z"/></g></svg>