<svg viewBox="0 0 512 512" xml:space="preserve" xmlns="http://www.w3.org/2000/svg" enable-background="new 0 0 512 512"><path d="M82 113.7H31.3C17.3 113.7 6 125 6 139s11.3 25.3 25.3 25.3H82c14 0 25.3-11.3 25.3-25.3S96 113.7 82 113.7zM82 230.7H31.3C17.3 230.7 6 242 6 256s11.3 25.3 25.3 25.3H82c14 0 25.3-11.3 25.3-25.3S96 230.7 82 230.7zM82 347.7H31.3C17.3 347.7 6 359 6 373s11.3 25.3 25.3 25.3H82c14 0 25.3-11.3 25.3-25.3S96 347.7 82 347.7z" fill="#ffffff" class="fill-000000"></path><path d="M358.8 11.6H147.1c-45.6 0-83.3 36.5-89.5 84H82c23.9 0 43.4 19.5 43.4 43.4s-19.5 43.4-43.4 43.4H56.7v30.2H82c23.9 0 43.4 19.5 43.4 43.4s-19.5 43.4-43.4 43.4H56.7v30.2H82c23.9 0 43.4 19.5 43.4 43.4s-19.5 43.4-43.4 43.4H57.6c6.2 47.5 43.9 84 89.5 84h211.7c50 0 90.5-43.8 90.5-97.8V109.4c0-54-40.5-97.8-90.5-97.8zM253 176.4c21.9 0 39.7 17.8 39.7 39.7s-17.8 39.7-39.7 39.7-39.7-17.8-39.7-39.7 17.7-39.7 39.7-39.7zm-86.6 159.2c0-40.7 33-73.8 73.8-73.8h25.7c40.7 0 73.8 33 73.8 73.8H166.4zM497.6 188.3l-30.2 12.6v-97.4l30.2 12.6c5.1 2.1 8.4 6.8 8.4 11.9v48.4c0 5.1-3.3 9.8-8.4 11.9zM505.1 203.7l-37.7 17.1v52.5l30.2-13.7c5.1-2.3 8.4-7.4 8.4-13v-43.4c-.3.1-.6.3-.9.5zM505.1 276l-37.7 17.1v52.5l30.2-13.7c5.1-2.3 8.4-7.4 8.4-13v-43.4c-.3.2-.6.4-.9.5zM505.1 348.4l-37.7 17.1V418l30.2-13.7c5.1-2.3 8.4-7.4 8.4-13v-43.4c-.3.2-.6.4-.9.5z" fill="#ffffff" class="fill-000000"></path></svg>